<?xml version="1.0" encoding="UTF-8" standalone="no"?><svg xmlns="http://www.w3.org/2000/svg" xmlns:xlink="http://www.w3.org/1999/xlink" fill="#ffffff" height="56.1" preserveAspectRatio="xMidYMid meet" version="1" viewBox="3.9 3.9 56.2 56.1" width="56.2" zoomAndPan="magnify"><g data-name="Dream House" id="change1_1"><path d="M53,60H11a1,1,0,0,1-1-1V29a1,1,0,0,1,2,0V58H52V29a1,1,0,0,1,2,0V59A1,1,0,0,1,53,60Z" fill="inherit"/><path d="M59,30H5a1,1,0,0,1-.6646-1.7471l27-24a.9982.9982,0,0,1,1.3292,0l27,24A1,1,0,0,1,59,30ZM7.63,28H56.37L32,6.3379Z" fill="inherit"/><path d="M13,22.89a1,1,0,0,1-1-1V5a1,1,0,0,1,1-1h8a1,1,0,0,1,1,1v9.78a1,1,0,0,1-2,0V6H14V21.89A1,1,0,0,1,13,22.89Z" fill="inherit"/><path d="M32,54a.9967.9967,0,0,1-.707-.293l-9.1924-9.1924a6,6,0,0,1,8.4853-8.4853L32,37.4434l1.4141-1.4141a6.0078,6.0078,0,0,1,8.4853,0h0a6,6,0,0,1,0,8.4853L32.707,53.707A.9967.9967,0,0,1,32,54ZM26.3433,36.2744a3.9986,3.9986,0,0,0-2.8287,6.8262L32,51.5859l8.4854-8.4853a4.0011,4.0011,0,0,0,0-5.6572h0a4.0069,4.0069,0,0,0-5.6573,0L32.707,39.5645a1,1,0,0,1-1.414,0l-2.1211-2.1211A3.9892,3.9892,0,0,0,26.3433,36.2744Z" fill="inherit"/></g></svg>